<svg version="1.1" xmlns="http://www.w3.org/2000/svg" xmlns:xlink="http://www.w3.org/1999/xlink" width="512.000000pt" height="512.000000pt" viewBox="0,0,256,256"><g fill-opacity="0.90196" fill="#ffffff" fill-rule="nonzero" stroke="none" stroke-width="1" stroke-linecap="butt" stroke-linejoin="miter" stroke-miterlimit="10" stroke-dasharray="" stroke-dashoffset="0" font-family="none" font-weight="none" font-size="none" text-anchor="none" style="mix-blend-mode: normal"><g transform="translate(-0.25,0.05569) scale(0.5,0.5)"><g transform="translate(0,512) scale(0.1,-0.1)"><path d="M661,5105c-150,-33 -254,-83 -363,-175c-117,-97 -209,-237 -255,-385l-28,-90v-1895v-1895l28,-90c80,-259 283,-462 542,-542l90,-28h1140h1140l90,28c259,80 463,284 542,542c27,90 27,91 28,390c0,299 0,300 -24,338c-13,21 -42,50 -64,65c-34,23 -52,27 -107,27c-55,0 -73,-4 -107,-27c-22,-15 -51,-44 -64,-65c-23,-37 -24,-46 -30,-313c-5,-255 -7,-279 -28,-333c-43,-110 -132,-195 -245,-234c-48,-17 -118,-18 -1136,-18h-1085l-58,23c-111,45 -195,133 -234,246c-17,48 -18,146 -18,1886c0,1740 1,1838 18,1886c39,113 123,201 234,246l58,23h1085c1018,0 1088,-1 1136,-18c113,-39 202,-124 245,-234c21,-54 23,-78 28,-334l6,-276l27,-40c41,-62 90,-88 168,-88c78,0 127,26 168,88l27,41v300c-1,300 -1,301 -28,391c-79,258 -283,462 -542,542l-90,28l-1115,2c-924,1 -1126,-1 -1179,-12z"></path><path d="M4315,3391c-88,-41 -133,-131 -113,-227c9,-46 23,-62 191,-231l181,-183l-1235,-2l-1235,-3l-41,-27c-63,-41 -88,-90 -88,-169c0,-54 5,-72 27,-106c15,-22 44,-51 65,-64l38,-24l1234,-3l1235,-2l-181,-183c-168,-169 -182,-185 -191,-231c-34,-162 126,-295 273,-227c26,12 132,112 306,287c247,250 268,274 300,344c33,74 34,77 34,210c0,133 -1,136 -34,210c-32,70 -53,94 -300,344c-174,175 -280,275 -306,287c-51,24 -109,24 -160,0z"></path></g></g></g></svg>